<svg xmlns="http://www.w3.org/2000/svg" width="1977" height="562" viewBox="0 0 1977 562">
  <g fill="#393436" fill-rule="evenodd" transform="translate(8 138)">
    <polygon points="1359 9 1374.883 9 1374.883 259.256 1471 259.256 1471 274 1359 274"/>
    <path d="M1624.44151 167.238517L1594.56817 59.7319293C1591.14768 48.3726781 1587.36292 27.9308854 1587.36292 27.9308854L1586.6173 27.9308854C1586.6173 27.9308854 1582.81455 48.0100244 1579.43093 59.7319293L1549.51981 167.238517 1624.44151 167.238517zM1578.28417 9L1595.31379 9 1671 274 1654.33374 274 1628.22627 182.001134 1545.3537 182.001134 1519.64647 274 1503 274 1578.28417 9zM121.614077 0C145.403101 0 171.462491 6.81292597 189.585024 22.7163575L163.908068 76.148069C156.353646 67.0575635 139.374824 58.7136429 124.628664 58.7136429 84.2235029 58.7136429 63.8306029 95.0945775 63.8306029 137.540952 63.8306029 181.863246 85.7307964 221.267445 123.884444 221.267445 142.389411 221.267445 155.609426 212.540776 167.322147 203.067521L193 255.733736C176.002326 268.613003 155.609426 280 118.600388 280 43.4377029 280 0 220.884696 0 140.565117 0 58.7136429 45.3265329 0 121.614077 0"/>
    <path d="M299.808323 220.516651C332.067809 220.516651 346.481929 186.411783 346.481929 138.679199 346.481929 91.3113768 332.067809 59.4833493 299.808323 59.4833493 267.548837 59.4833493 252.751362 91.6941525 252.751362 138.296423 252.751362 186.794559 267.548837 220.516651 299.808323 220.516651M299.808323 0C371.151001 0 411 59.1005735 411 138.679199 411 218.602772 371.151001 280 299.808323 280 228.466546 280 189 219.005362 189 138.296423 189 59.4833493 228.466546 0 299.808323 0M432 0L497.372838 0 543.466697 125.075121C551.025055 143.263476 556.694498 170.200945 556.694498 170.200945L558.201678 170.200945C558.201678 170.200945 554.804684 141.750783 554.804684 124.711138L554.804684 0 613 0 613 271 548.009796 271 501.533303 146.326702C494.35668 127.736524 488.669274 100.837796 488.669274 100.837796L487.161195 100.837796C487.161195 100.837796 490.55819 129.249217 490.55819 146.326702L490.55819 271 432 271 432 0zM725.445784 216.052933C757.17635 216.052933 774.177017 188.005495 774.177017 134.935105 774.177017 82.2665379 756.050395 54.9659867 725.445784 54.9659867L709.952676 54.9659867 709.952676 216.052933 725.445784 216.052933zM648 0L726.953343 0C796.081065 0 838 49.6630019 838 134.935105 838 220.227029 796.081065 271 726.953343 271L648 271 648 0zM965.808323 220.516651C998.066907 220.516651 1012.48193 186.411783 1012.48193 138.679199 1012.48193 91.3113768 998.066907 59.4833493 965.808323 59.4833493 933.548837 59.4833493 918.751362 91.6941525 918.751362 138.296423 918.751362 186.794559 933.548837 220.516651 965.808323 220.516651M965.808323 0C1037.1501 0 1077 59.1005735 1077 138.679199 1077 218.602772 1037.1501 280 965.808323 280 894.465644 280 855 219.005362 855 138.296423 855 59.4833493 894.465644 0 965.808323 0M1171.7788 125.075121C1188.06365 125.075121 1201.30921 112.190652 1201.30921 89.8291023 1201.30921 76.9446332 1197.14198 66.3377627 1190.33751 60.6518747 1185.40663 56.861583 1178.98443 54.9659867 1174.05265 54.9659867L1160.06144 54.9659867 1160.06144 125.075121 1171.7788 125.075121zM1098 0L1183.51415 0C1194.12247 0 1207.73141 2.6424829 1218.70221 7.58148434 1245.57649 19.7199678 1264.11631 47.0015991 1264.11631 83.3774078 1264.11631 116.364748 1248.61579 145.177992 1227.03577 159.575154L1227.03577 160.340961C1227.03577 160.340961 1230.82073 164.878139 1236.49727 176.613899L1280 271 1211.89774 271 1174.8172 179.275301 1160.06144 179.275301 1160.06144 271 1098 271 1098 0zM1745.7795 259.2891C1788.1983 259.2891 1806.3675 237.3336 1806.3675 202.8699 1806.3675 163.8747 1783.6272 141.8994 1758.2679 141.8994L1707.9309 141.8994 1707.9309 259.2891 1745.7795 259.2891zM1756.3932 127.1349C1778.3487 127.1349 1797.6654 106.6905 1797.6654 74.8854 1797.6654 43.0812 1777.9662 23.7834 1749.5658 23.7834L1707.9309 23.7834 1707.9309 127.1349 1756.3932 127.1349zM1692 9L1750.3119 9C1786.2858 9 1814.3235 34.0155 1814.3235 74.8854 1814.3235 105.1794 1798.7742 123.7311 1784.0295 133.1982L1784.0295 133.9632C1802.9439 140.7708 1822.662 164.6397 1822.662 202.1247 1822.662 246.0357 1795.7529 274.0347 1746.5445 274.0347L1692 274.0347 1692 9zM1844.3385 237.0348C1857.9744 249.5241 1876.1436 258.6078 1895.823 258.6078 1923.4773 258.6078 1944.3042 238.9284 1944.3042 206.7408 1944.3042 135.558 1841.3163 145.0251 1841.3163 67.014 1841.3163 29.9304 1865.5479 0 1909.0953 0 1927.2645 0 1943.9217 5.3163 1959.0696 15.5295L1952.6238 30.294C1942.029 21.9744 1923.4773 15.5295 1908.3303 15.5295 1875.015 15.5295 1857.9744 40.1436 1857.9744 67.014 1857.9744 133.6644 1960.9623 124.2171 1960.9623 205.2306 1960.9623 244.9908 1936.3482 274.1373 1895.0769 274.1373 1873.485 274.1373 1852.677 265.8186 1836 250.2693L1844.3385 237.0348z"/>
  </g>
</svg>
