<svg xmlns="http://www.w3.org/2000/svg" width="553" height="562" viewBox="0 0 553 562">
  <path fill="#32332F" fill-rule="evenodd" d="M513.833942,420.317534 C501.222891,419.048639 510.953674,409.708739 510.953674,409.708739 C510.953674,409.708739 505.172487,414.494002 457.35985,430.695703 C415.634565,444.82177 407.087135,434.558462 419.277997,421.969901 C435.247864,405.518582 452.64799,385.243393 452.64799,385.243393 C452.64799,385.243393 422.674523,413.226012 350.002512,439.690116 C300.606087,457.678942 277.634869,453.642535 309.516245,429.773199 C364.044719,388.990387 392.758517,347.728234 392.758517,347.728234 C349.066963,390.047649 308.428961,406.460983 255.083839,420.163784 C214.998906,430.465077 148.870348,425.698807 213.281339,398.119558 C311.100033,356.222506 369.23423,307.599315 369.23423,307.599315 C335.368629,332.948275 264.432142,352.167106 200.956699,356.799523 C144.787873,360.892908 103.042835,336.715166 149.538341,325.972517 C275.460302,296.855762 352.787609,260.032481 352.787609,260.032481 C352.787609,260.032481 298.565299,284.786336 179.454346,280.519303 C92.1098455,277.387312 48.5529676,227.360468 107.602063,229.455094 C218.891039,233.394729 293.031915,220.018422 293.031915,220.018422 C269.583944,220.864051 232.170082,217.923796 178.367063,192.573931 C149.748435,179.101756 128.665373,165.245205 125.288599,151.215006 C122.464894,139.376206 126.872387,131.842424 157.933138,143.258862 C289.445047,191.555559 527.914756,165.629582 551,162.957938 L551,2 L127.940816,2 C58.6832884,2 2,59.0993739 2,128.864184 L2,433.136721 C2,502.900626 58.6832884,560 127.940816,560 L551,560 L551,410.708119 C531.691966,417.992282 516.409843,420.586146 513.833942,420.317534"/>
</svg>
